<svg width="36" height="55" viewBox="0 0 36 55" fill="none" xmlns="http://www.w3.org/2000/svg">
<path d="M7.56 41.16V49.5H6.192V45.852H2.268V49.5H0.9V41.16H2.268V44.736H6.192V41.16H7.56ZM12.2289 49.608C11.6049 49.608 11.0409 49.468 10.5369 49.188C10.0329 48.9 9.63694 48.5 9.34894 47.988C9.06094 47.468 8.91694 46.868 8.91694 46.188C8.91694 45.516 9.06494 44.92 9.36094 44.4C9.65694 43.88 10.0609 43.48 10.5729 43.2C11.0849 42.92 11.6569 42.78 12.2889 42.78C12.9209 42.78 13.4929 42.92 14.0049 43.2C14.5169 43.48 14.9209 43.88 15.2169 44.4C15.5129 44.92 15.6609 45.516 15.6609 46.188C15.6609 46.86 15.5089 47.456 15.2049 47.976C14.9009 48.496 14.4849 48.9 13.9569 49.188C13.4369 49.468 12.8609 49.608 12.2289 49.608ZM12.2289 48.42C12.5809 48.42 12.9089 48.336 13.2129 48.168C13.5249 48 13.7769 47.748 13.9689 47.412C14.1609 47.076 14.2569 46.668 14.2569 46.188C14.2569 45.708 14.1649 45.304 13.9809 44.976C13.7969 44.64 13.5529 44.388 13.2489 44.22C12.9449 44.052 12.6169 43.968 12.2649 43.968C11.9129 43.968 11.5849 44.052 11.2809 44.22C10.9849 44.388 10.7489 44.64 10.5729 44.976C10.3969 45.304 10.3089 45.708 10.3089 46.188C10.3089 46.9 10.4889 47.452 10.8489 47.844C11.2169 48.228 11.6769 48.42 12.2289 48.42ZM25.0173 42.78C25.5373 42.78 26.0013 42.888 26.4093 43.104C26.8253 43.32 27.1493 43.64 27.3813 44.064C27.6213 44.488 27.7413 45 27.7413 45.6V49.5H26.3853V45.804C26.3853 45.212 26.2373 44.76 25.9413 44.448C25.6453 44.128 25.2413 43.968 24.7293 43.968C24.2173 43.968 23.8093 44.128 23.5053 44.448C23.2093 44.76 23.0613 45.212 23.0613 45.804V49.5H21.7053V45.804C21.7053 45.212 21.5573 44.76 21.2613 44.448C20.9653 44.128 20.5613 43.968 20.0493 43.968C19.5373 43.968 19.1293 44.128 18.8253 44.448C18.5293 44.76 18.3813 45.212 18.3813 45.804V49.5H17.0133V42.888H18.3813V43.644C18.6053 43.372 18.8893 43.16 19.2333 43.008C19.5773 42.856 19.9453 42.78 20.3373 42.78C20.8653 42.78 21.3373 42.892 21.7533 43.116C22.1693 43.34 22.4893 43.664 22.7133 44.088C22.9133 43.688 23.2253 43.372 23.6493 43.14C24.0733 42.9 24.5293 42.78 25.0173 42.78ZM35.542 46.032C35.542 46.28 35.526 46.504 35.494 46.704H30.442C30.482 47.232 30.678 47.656 31.03 47.976C31.382 48.296 31.814 48.456 32.326 48.456C33.062 48.456 33.582 48.148 33.886 47.532H35.362C35.162 48.14 34.798 48.64 34.27 49.032C33.75 49.416 33.102 49.608 32.326 49.608C31.694 49.608 31.126 49.468 30.622 49.188C30.126 48.9 29.734 48.5 29.446 47.988C29.166 47.468 29.026 46.868 29.026 46.188C29.026 45.508 29.162 44.912 29.434 44.4C29.714 43.88 30.102 43.48 30.598 43.2C31.102 42.92 31.678 42.78 32.326 42.78C32.95 42.78 33.506 42.916 33.994 43.188C34.482 43.46 34.862 43.844 35.134 44.34C35.406 44.828 35.542 45.392 35.542 46.032ZM34.114 45.6C34.106 45.096 33.926 44.692 33.574 44.388C33.222 44.084 32.786 43.932 32.266 43.932C31.794 43.932 31.39 44.084 31.054 44.388C30.718 44.684 30.518 45.088 30.454 45.6H34.114Z" fill="#4A682C"/>
<path fill-rule="evenodd" clip-rule="evenodd" d="M4.40515 11.9844C3.61765 13.6279 3.89474 15.5514 4.4489 19.3971L4.85432 22.2219C5.56453 27.1627 5.92036 29.6317 7.6339 31.1075C9.34744 32.5833 11.8602 32.5833 16.887 32.5833H20.1129C25.1397 32.5833 27.6524 32.5833 29.366 31.1075C31.0795 29.6317 31.4354 27.1627 32.1456 22.2219L32.5524 19.3971C33.1066 15.5514 33.3837 13.6279 32.5947 11.9844C31.8072 10.3408 30.1287 9.34041 26.7731 7.34249L24.7533 6.13936C21.7083 4.32374 20.1829 3.41666 18.4999 3.41666C16.817 3.41666 15.2931 4.32374 12.2466 6.13936L10.2268 7.34249C6.87265 9.34041 5.19411 10.3408 4.40515 11.9844ZM18.4999 27.8437C18.2099 27.8437 17.9317 27.7285 17.7265 27.5234C17.5214 27.3183 17.4062 27.0401 17.4062 26.75V22.375C17.4062 22.0849 17.5214 21.8067 17.7265 21.6016C17.9317 21.3965 18.2099 21.2812 18.4999 21.2812C18.79 21.2812 19.0682 21.3965 19.2733 21.6016C19.4785 21.8067 19.5937 22.0849 19.5937 22.375V26.75C19.5937 27.0401 19.4785 27.3183 19.2733 27.5234C19.0682 27.7285 18.79 27.8437 18.4999 27.8437Z" fill="#4A682C"/>
</svg>
