<svg width="96" height="127" viewBox="0 0 96 127" fill="none" xmlns="http://www.w3.org/2000/svg">
<g clip-path="url(#clip0_69_3200)">
<path fill-rule="evenodd" clip-rule="evenodd" d="M44.4823 22.2615C39.2031 22.3796 33.8093 22.8486 28.6482 23.9048C22.9018 25.1938 15.7465 27.6571 14.1049 34.1088L13.7574 44.311V47.5977L12.9375 44.4309C11.2907 44.7801 10 46.3053 10 48.1814V52.1768C10 54.1711 11.7597 55.9291 13.7522 55.9291V59.3234C13.7522 65.188 16.5681 70.3491 21.2584 73.7504V35.9849C22.1982 32.4655 31.2279 30.3548 41.6664 29.7677C42.5078 30.8453 43.5723 31.7283 44.787 32.3558C46.0017 32.9834 47.3378 33.3408 48.7035 33.4035C46.7431 32.4009 45.2254 30.7053 44.4452 28.6462C43.6651 26.587 43.6783 24.3114 44.4823 22.2615Z" fill="white"/>
<path fill-rule="evenodd" clip-rule="evenodd" d="M42.832 62.8429C44.432 63.6524 46.1999 64.0742 47.9931 64.0742C49.7862 64.0742 51.5541 63.6524 53.1541 62.8429C52.5319 63.6123 51.7455 64.2328 50.8525 64.6591C49.9595 65.0854 48.9826 65.3066 47.9931 65.3066C47.0035 65.3066 46.0266 65.0854 45.1336 64.6591C44.2406 64.2328 43.4542 63.6123 42.832 62.8429Z" fill="white"/>
<path fill-rule="evenodd" clip-rule="evenodd" d="M74.7399 35.9849V59.3234C74.7399 63.0774 72.8638 66.3606 69.4624 68.2367C60.5491 73.1632 35.4509 73.1632 26.5376 68.2367C26.013 67.9513 25.5038 67.6381 25.0124 67.2987L21.2585 73.7504C21.8456 74.0978 22.3146 74.4539 22.9018 74.6885C34.1602 81.0221 61.8398 81.0221 73.1052 74.6885C78.8534 71.5216 82.253 65.7752 82.253 59.3234V52.7553L83.0747 55.8057C83.901 55.6175 84.6398 55.1564 85.1718 54.4967C85.7039 53.837 85.9981 53.0173 86.007 52.1699V48.1744C86.007 46.0638 84.3654 43.9532 82.3711 43.9532L82.1366 33.6311C81.9021 26.9466 73.1035 25.1868 67.3587 23.9031C57.1548 21.7907 48.476 25.6611 52.1118 16.8659C63.7229 21.3217 65.9517 8.77257 73.5742 3.377C71.3818 1.65388 68.7731 0.540593 66.0121 0.149825C63.2511 -0.240943 60.4358 0.104685 57.8514 1.15172C52.5739 3.26235 48.9381 8.07076 48.1234 13.7008C52.2339 8.97523 57.8855 5.85859 64.0756 4.90395C56.208 7.24909 52.6921 11.3557 48.7036 18.0402C37.7943 41.0278 71.3403 23.0832 74.7399 35.9849Z" fill="white"/>
<path d="M34.6883 56.9192C38.8981 56.9192 42.3109 53.5065 42.3109 49.2966C42.3109 45.0868 38.8981 41.6741 34.6883 41.6741C30.4785 41.6741 27.0657 45.0868 27.0657 49.2966C27.0657 53.5065 30.4785 56.9192 34.6883 56.9192Z" fill="white"/>
<path fill-rule="evenodd" clip-rule="evenodd" d="M37.7943 51.9406C38.3181 51.328 38.6485 50.5739 38.7438 49.7735C38.839 48.9732 38.6948 48.1626 38.3294 47.4442C37.9639 46.7258 37.3937 46.1319 36.6907 45.7376C35.9877 45.3433 35.1837 45.1663 34.3801 45.2289C33.5765 45.2916 32.8096 45.5912 32.1763 46.0897C31.543 46.5882 31.0717 47.2633 30.822 48.0297C30.5724 48.7961 30.5556 49.6192 30.7738 50.3951C30.992 51.171 31.4353 51.8648 32.0478 52.3888C32.3199 52.6237 32.6285 52.8127 32.9615 52.9481C32.9444 52.4284 33.1315 51.9227 33.4827 51.5393C33.6582 51.334 33.8728 51.1657 34.1139 51.044C34.3551 50.9223 34.618 50.8498 34.8874 50.8306C35.1568 50.8113 35.4273 50.8458 35.6833 50.932C35.9393 51.0182 36.1756 51.1543 36.3785 51.3326C36.5706 51.4908 36.729 51.686 36.8445 51.9064C36.96 52.1269 37.0301 52.3683 37.0508 52.6163C37.3196 52.4153 37.5686 52.189 37.7943 51.9406Z" fill="#4A682C"/>
<path d="M60.9191 56.9192C65.129 56.9192 68.5417 53.5065 68.5417 49.2966C68.5417 45.0868 65.129 41.6741 60.9191 41.6741C56.7093 41.6741 53.2965 45.0868 53.2965 49.2966C53.2965 53.5065 56.7093 56.9192 60.9191 56.9192Z" fill="white"/>
<path fill-rule="evenodd" clip-rule="evenodd" d="M64.013 51.9406C64.5374 51.3279 64.8683 50.5734 64.9639 49.7726C65.0594 48.9718 64.9153 48.1606 64.5498 47.4417C64.1843 46.7228 63.6138 46.1285 62.9105 45.7338C62.2071 45.3392 61.4025 45.1621 60.5985 45.2248C59.7945 45.2875 59.0271 45.5872 58.3934 46.0861C57.7598 46.585 57.2883 47.2606 57.0387 48.0275C56.789 48.7944 56.7724 49.6181 56.991 50.3944C57.2096 51.1707 57.6535 51.8648 58.2665 52.3887C58.5383 52.6232 58.8463 52.8121 59.1785 52.9481C59.1623 52.4286 59.3493 51.9232 59.6997 51.5393C59.8753 51.3342 60.09 51.1661 60.3311 51.0445C60.5722 50.923 60.8351 50.8505 61.1044 50.8313C61.3737 50.8121 61.6442 50.8465 61.9002 50.9325C62.1561 51.0186 62.3925 51.1545 62.5955 51.3326C62.7878 51.4907 62.9465 51.6858 63.0623 51.9063C63.1781 52.1268 63.2485 52.3682 63.2695 52.6163C63.5383 52.4153 63.7873 52.189 64.013 51.9406Z" fill="#4A682C"/>
</g>
<path d="M21.952 96.0618V115.438H19.404V100.99L12.964 115.438H11.172L4.704 100.962V115.438H2.156V96.0618H4.9L12.068 112.078L19.236 96.0618H21.952ZM39.8812 100.094V115.438H37.3332V113.17C36.8479 113.954 36.1665 114.57 35.2892 115.018C34.4305 115.447 33.4785 115.662 32.4332 115.662C31.2385 115.662 30.1652 115.419 29.2132 114.934C28.2612 114.43 27.5052 113.683 26.9452 112.694C26.4039 111.704 26.1332 110.5 26.1332 109.082V100.094H28.6532V108.746C28.6532 110.258 29.0359 111.424 29.8012 112.246C30.5665 113.048 31.6119 113.45 32.9372 113.45C34.2999 113.45 35.3732 113.03 36.1572 112.19C36.9412 111.35 37.3332 110.127 37.3332 108.522V100.094H39.8812ZM46.7313 102.586C47.1793 101.708 47.814 101.027 48.6353 100.542C49.4753 100.056 50.4927 99.8138 51.6873 99.8138V102.446H51.0153C48.1593 102.446 46.7313 103.995 46.7313 107.094V115.438H44.1833V100.094H46.7313V102.586ZM55.9447 97.6018C55.4593 97.6018 55.0487 97.4338 54.7127 97.0978C54.3767 96.7618 54.2087 96.3511 54.2087 95.8658C54.2087 95.3805 54.3767 94.9698 54.7127 94.6338C55.0487 94.2978 55.4593 94.1298 55.9447 94.1298C56.4113 94.1298 56.8033 94.2978 57.1207 94.6338C57.4567 94.9698 57.6247 95.3805 57.6247 95.8658C57.6247 96.3511 57.4567 96.7618 57.1207 97.0978C56.8033 97.4338 56.4113 97.6018 55.9447 97.6018ZM57.1767 100.094V115.438H54.6287V100.094H57.1767ZM79.9713 99.8138C81.1659 99.8138 82.2299 100.066 83.1633 100.57C84.0966 101.055 84.8339 101.792 85.3753 102.782C85.9166 103.771 86.1873 104.975 86.1873 106.394V115.438H83.6673V106.758C83.6673 105.227 83.2846 104.06 82.5193 103.258C81.7726 102.436 80.7553 102.026 79.4673 102.026C78.1419 102.026 77.0873 102.455 76.3033 103.314C75.5193 104.154 75.1273 105.376 75.1273 106.982V115.438H72.6073V106.758C72.6073 105.227 72.2246 104.06 71.4593 103.258C70.7126 102.436 69.6953 102.026 68.4073 102.026C67.0819 102.026 66.0273 102.455 65.2433 103.314C64.4593 104.154 64.0673 105.376 64.0673 106.982V115.438H61.5193V100.094H64.0673V102.306C64.5713 101.503 65.2433 100.887 66.0833 100.458C66.9419 100.028 67.8846 99.8138 68.9113 99.8138C70.1993 99.8138 71.3379 100.103 72.3273 100.682C73.3166 101.26 74.0539 102.11 74.5393 103.23C74.9686 102.147 75.6779 101.307 76.6673 100.71C77.6566 100.112 78.7579 99.8138 79.9713 99.8138ZM91.6829 97.6018C91.1976 97.6018 90.7869 97.4338 90.4509 97.0978C90.1149 96.7618 89.9469 96.3511 89.9469 95.8658C89.9469 95.3805 90.1149 94.9698 90.4509 94.6338C90.7869 94.2978 91.1976 94.1298 91.6829 94.1298C92.1496 94.1298 92.5416 94.2978 92.8589 94.6338C93.1949 94.9698 93.3629 95.3805 93.3629 95.8658C93.3629 96.3511 93.1949 96.7618 92.8589 97.0978C92.5416 97.4338 92.1496 97.6018 91.6829 97.6018ZM92.9149 100.094V115.438H90.3669V100.094H92.9149Z" fill="white"/>
<defs>
<clipPath id="clip0_69_3200">
<rect width="76" height="79.4378" fill="white" transform="translate(10)"/>
</clipPath>
</defs>
</svg>
