<svg width="27" height="28" viewBox="0 0 27 28" fill="none" xmlns="http://www.w3.org/2000/svg">
<path fill-rule="evenodd" clip-rule="evenodd" d="M3.29163 9.625H4.74996V16.9167H22.25V9.625H23.7083V16.9167H25.5312C25.6279 16.9167 25.7206 16.9551 25.789 17.0235C25.8574 17.0918 25.8958 17.1846 25.8958 17.2813V18.0104C25.8958 18.1071 25.8574 18.1998 25.789 18.2682C25.7206 18.3366 25.6279 18.375 25.5312 18.375H1.46871C1.37202 18.375 1.27928 18.3366 1.21091 18.2682C1.14254 18.1998 1.10413 18.1071 1.10413 18.0104V17.2813C1.10413 17.1846 1.14254 17.0918 1.21091 17.0235C1.27928 16.9551 1.37202 16.9167 1.46871 16.9167H3.29163V9.625ZM3.29163 21.2917V25.6667H23.7083V21.2917H3.29163ZM2.56246 19.8333C2.36907 19.8333 2.18361 19.9102 2.04686 20.0469C1.91012 20.1836 1.83329 20.3691 1.83329 20.5625V26.3958C1.83329 26.5892 1.91012 26.7747 2.04686 26.9114C2.18361 27.0482 2.36907 27.125 2.56246 27.125H24.4375C24.6308 27.125 24.8163 27.0482 24.9531 26.9114C25.0898 26.7747 25.1666 26.5892 25.1666 26.3958V20.5625C25.1666 20.3691 25.0898 20.1836 24.9531 20.0469C24.8163 19.9102 24.6308 19.8333 24.4375 19.8333H2.56246Z" fill="#545454"/>
<path fill-rule="evenodd" clip-rule="evenodd" d="M3.42948 2.33333L1.86542 6.6449C1.84437 6.70262 1.83351 6.76356 1.83333 6.825V8.56771C1.83333 9.1576 2.3051 9.625 2.87531 9.625C3.44406 9.625 3.91656 9.15833 3.91656 8.56844C3.91656 8.37505 3.99338 8.18958 4.13013 8.05284C4.26688 7.91609 4.45234 7.83927 4.64573 7.83927C4.83912 7.83927 5.02458 7.91609 5.16133 8.05284C5.29807 8.18958 5.3749 8.37505 5.3749 8.56844C5.37315 8.84667 5.4819 9.11421 5.67727 9.31231C5.87264 9.51042 6.13865 9.62288 6.41688 9.625C6.98563 9.625 7.45813 9.15833 7.45813 8.56844C7.45813 8.37505 7.53495 8.18958 7.67169 8.05284C7.80844 7.91609 7.99391 7.83927 8.18729 7.83927C8.38068 7.83927 8.56614 7.91609 8.70289 8.05284C8.83964 8.18958 8.91646 8.37505 8.91646 8.56844C8.91471 8.84667 9.02347 9.11421 9.21883 9.31231C9.4142 9.51042 9.68021 9.62288 9.95844 9.625C10.5272 9.625 10.9997 9.15833 10.9997 8.56917C10.9997 8.37578 11.0765 8.19031 11.2133 8.05357C11.35 7.91682 11.5355 7.84 11.7289 7.84C11.9222 7.84 12.1077 7.91682 12.2445 8.05357C12.3812 8.19031 12.458 8.37578 12.458 8.56917C12.4587 9.15833 12.9313 9.625 13.5 9.625C14.0688 9.625 14.542 9.15833 14.542 8.56844C14.542 8.37505 14.6188 8.18958 14.7555 8.05284C14.8923 7.91609 15.0778 7.83927 15.2711 7.83927C15.4645 7.83927 15.65 7.91609 15.7867 8.05284C15.9235 8.18958 16.0003 8.37505 16.0003 8.56844C16.0003 9.1576 16.4721 9.625 17.0416 9.625C17.6103 9.625 18.0828 9.15833 18.0835 8.56917C18.0835 8.37578 18.1604 8.19031 18.2971 8.05357C18.4339 7.91682 18.6193 7.84 18.8127 7.84C19.0061 7.84 19.1916 7.91682 19.3283 8.05357C19.4651 8.19031 19.5419 8.37578 19.5419 8.56917C19.5419 9.15833 20.0144 9.625 20.5831 9.625C21.1526 9.625 21.6251 9.15833 21.6251 8.56844C21.6251 8.37505 21.7019 8.18958 21.8387 8.05284C21.9754 7.91609 22.1609 7.83927 22.3543 7.83927C22.5477 7.83927 22.7331 7.91609 22.8699 8.05284C23.0066 8.18958 23.0834 8.37505 23.0834 8.56844C23.0834 9.1576 23.5552 9.625 24.1247 9.625C24.6949 9.625 25.1667 9.15833 25.1667 8.56844V6.82573C25.1665 6.76405 25.1557 6.70286 25.1346 6.6449L23.5705 2.33333H3.42948ZM22.3543 10.344C22.1229 10.5786 21.8471 10.7648 21.543 10.8917C21.2389 11.0186 20.9126 11.0838 20.5831 11.0833C20.2537 11.0837 19.9275 11.0186 19.6236 10.8916C19.3196 10.7647 19.044 10.5785 18.8127 10.344C18.5813 10.5786 18.3056 10.7648 18.0015 10.8918C17.6974 11.0187 17.3711 11.0838 17.0416 11.0833C16.7122 11.0837 16.386 11.0186 16.082 10.8916C15.7781 10.7647 15.5024 10.5785 15.2711 10.344C15.0398 10.5786 14.764 10.7648 14.4599 10.8918C14.1558 11.0187 13.8295 11.0838 13.5 11.0833C13.1705 11.0838 12.8442 11.0187 12.5401 10.8918C12.236 10.7648 11.9602 10.5786 11.7289 10.344C11.4976 10.5785 11.2219 10.7647 10.918 10.8916C10.614 11.0186 10.2878 11.0837 9.95844 11.0833C9.265 11.0833 8.63865 10.7997 8.18729 10.344C7.95602 10.5785 7.68037 10.7647 7.37641 10.8916C7.07246 11.0186 6.74627 11.0837 6.41688 11.0833C6.08736 11.0838 5.76105 11.0186 5.45697 10.8917C5.15289 10.7648 4.87712 10.5786 4.64573 10.344C4.41454 10.5784 4.13901 10.7645 3.83519 10.8915C3.53136 11.0184 3.20532 11.0836 2.87604 11.0833C1.48844 11.0833 0.375 9.95167 0.375 8.56844V6.82573C0.375 6.59458 0.415104 6.3649 0.493854 6.1476L2.08344 1.76531C2.17774 1.50448 2.35015 1.27906 2.57718 1.11974C2.80421 0.960429 3.07483 0.874968 3.35219 0.875H23.6493C23.9265 0.875322 24.1968 0.961029 24.4236 1.12046C24.6503 1.27989 24.8225 1.50531 24.9166 1.76604L26.5061 6.1476C26.5856 6.3649 26.6257 6.59458 26.6257 6.82573V8.56844C26.625 9.95167 25.5116 11.0833 24.1247 11.0833C23.7953 11.0837 23.4691 11.0186 23.1652 10.8916C22.8612 10.7647 22.5855 10.5785 22.3543 10.344Z" fill="#545454"/>
<path d="M6.20837 15.0937C6.20837 14.997 6.24679 14.9043 6.31516 14.8359C6.38353 14.7676 6.47626 14.7292 6.57296 14.7292H8.76046C8.85715 14.7292 8.94988 14.7676 9.01826 14.8359C9.08663 14.9043 9.12504 14.997 9.12504 15.0937V16.5521C9.12504 16.6488 9.08663 16.7415 9.01826 16.8099C8.94988 16.8782 8.85715 16.9167 8.76046 16.9167H6.57296C6.47626 16.9167 6.38353 16.8782 6.31516 16.8099C6.24679 16.7415 6.20837 16.6488 6.20837 16.5521V15.0937Z" fill="#545454"/>
<path d="M7.66663 15.8229C7.66663 15.7262 7.70504 15.6335 7.77341 15.5651C7.84178 15.4967 7.93452 15.4583 8.03121 15.4583H10.2187C10.3154 15.4583 10.4081 15.4967 10.4765 15.5651C10.5449 15.6335 10.5833 15.7262 10.5833 15.8229V16.5521C10.5833 16.6488 10.5449 16.7415 10.4765 16.8099C10.4081 16.8782 10.3154 16.9167 10.2187 16.9167H8.03121C7.93452 16.9167 7.84178 16.8782 7.77341 16.8099C7.70504 16.7415 7.66663 16.6488 7.66663 16.5521V15.8229ZM13.5 15.8229C13.5 16.113 13.3847 16.3912 13.1796 16.5963C12.9745 16.8014 12.6963 16.9167 12.4062 16.9167C12.1161 16.9167 11.8379 16.8014 11.6328 16.5963C11.4277 16.3912 11.3125 16.113 11.3125 15.8229C11.3125 15.5328 11.4277 15.2546 11.6328 15.0495C11.8379 14.8444 12.1161 14.7292 12.4062 14.7292C12.6963 14.7292 12.9745 14.8444 13.1796 15.0495C13.3847 15.2546 13.5 15.5328 13.5 15.8229Z" fill="#545454"/>
</svg>
