<svg width="29" height="32" viewBox="0 0 29 32" fill="none" xmlns="http://www.w3.org/2000/svg">
<path d="M14.5 20.375C16.9162 20.375 18.875 18.4162 18.875 16C18.875 13.5838 16.9162 11.625 14.5 11.625C12.0838 11.625 10.125 13.5838 10.125 16C10.125 18.4162 12.0838 20.375 14.5 20.375Z" stroke="#545454" stroke-width="1.5"/>
<path d="M17.074 1.63832C16.5388 1.41666 15.8592 1.41666 14.5 1.41666C13.1409 1.41666 12.4613 1.41666 11.9261 1.63832C11.572 1.7849 11.2502 1.99984 10.9792 2.27084C10.7082 2.54184 10.4933 2.86359 10.3467 3.2177C10.2125 3.54291 10.1586 3.92353 10.1382 4.47624C10.1291 4.87581 10.0186 5.26651 9.81706 5.61165C9.61554 5.9568 9.32959 6.24506 8.98609 6.44936C8.6374 6.64484 8.24473 6.74847 7.84499 6.75051C7.44525 6.75255 7.05155 6.65294 6.70088 6.46103C6.21088 6.20145 5.8565 6.05853 5.50505 6.01186C4.73843 5.91105 3.96315 6.11877 3.34963 6.58936C2.89171 6.94374 2.55046 7.53145 1.87088 8.70832C1.1913 9.8852 0.850047 10.4729 0.775672 11.0489C0.725556 11.4288 0.750763 11.8148 0.849852 12.1848C0.948941 12.5549 1.11997 12.9019 1.35317 13.2058C1.569 13.4858 1.87088 13.7206 2.33901 14.0152C3.0288 14.4483 3.47213 15.1862 3.47213 16C3.47213 16.8137 3.0288 17.5517 2.33901 17.9833C1.87088 18.2794 1.56755 18.5142 1.35317 18.7942C1.11997 19.0981 0.948941 19.4451 0.849852 19.8151C0.750763 20.1852 0.725556 20.5712 0.775672 20.951C0.851505 21.5256 1.1913 22.1148 1.86942 23.2917C2.55046 24.4685 2.89026 25.0562 3.34963 25.4106C3.6536 25.6438 4.00053 25.8148 4.37062 25.9139C4.7407 26.013 5.12668 26.0382 5.50651 25.9881C5.85651 25.9414 6.21088 25.7985 6.70088 25.5389C7.05155 25.347 7.44525 25.2474 7.84499 25.2495C8.24473 25.2515 8.6374 25.3551 8.98609 25.5506C9.69046 25.9589 10.109 26.71 10.1382 27.5237C10.1586 28.0779 10.2111 28.4571 10.3467 28.7823C10.4933 29.1364 10.7082 29.4581 10.9792 29.7291C11.2502 30.0001 11.572 30.2151 11.9261 30.3617C12.4613 30.5833 13.1409 30.5833 14.5 30.5833C15.8592 30.5833 16.5388 30.5833 17.074 30.3617C17.4281 30.2151 17.7499 30.0001 18.0209 29.7291C18.2919 29.4581 18.5068 29.1364 18.6534 28.7823C18.7875 28.4571 18.8415 28.0779 18.8619 27.5237C18.8911 26.71 19.3096 25.9575 20.014 25.5506C20.3627 25.3551 20.7554 25.2515 21.1551 25.2495C21.5548 25.2474 21.9485 25.347 22.2992 25.5389C22.7892 25.7985 23.1436 25.9414 23.4936 25.9881C23.8734 26.0382 24.2594 26.013 24.6295 25.9139C24.9996 25.8148 25.3465 25.6438 25.6505 25.4106C26.1098 25.0577 26.4496 24.4685 27.1292 23.2917C27.8088 22.1148 28.15 21.5271 28.2244 20.951C28.2745 20.5712 28.2493 20.1852 28.1502 19.8151C28.0512 19.4451 27.8801 19.0981 27.6469 18.7942C27.4311 18.5142 27.1292 18.2794 26.6611 17.9848C26.3195 17.7771 26.0362 17.486 25.838 17.1388C25.6398 16.7916 25.5331 16.3997 25.528 16C25.528 15.1862 25.9713 14.4483 26.6611 14.0167C27.1292 13.7206 27.4325 13.4858 27.6469 13.2058C27.8801 12.9019 28.0512 12.5549 28.1502 12.1848C28.2493 11.8148 28.2745 11.4288 28.2244 11.0489C28.1486 10.4744 27.8088 9.8852 27.1307 8.70832C26.4496 7.53145 26.1098 6.94374 25.6505 6.58936C25.3465 6.35616 24.9996 6.18513 24.6295 6.08605C24.2594 5.98696 23.8734 5.96175 23.4936 6.01186C23.1436 6.05853 22.7892 6.20145 22.2978 6.46103C21.9473 6.65268 21.5538 6.75215 21.1544 6.75011C20.7549 6.74807 20.3625 6.64458 20.014 6.44936C19.6705 6.24506 19.3846 5.9568 19.183 5.61165C18.9815 5.26651 18.871 4.87581 18.8619 4.47624C18.8415 3.92207 18.789 3.54291 18.6534 3.2177C18.5068 2.86359 18.2919 2.54184 18.0209 2.27084C17.7499 1.99984 17.4281 1.7849 17.074 1.63832Z" stroke="#545454" stroke-width="1.5"/>
</svg>
